<?xml version="1.0" encoding="UTF-8"?>
<svg version="1.1" xmlns="http://www.w3.org/2000/svg" width="162" height="161">
<path d="M0 0 C53.46 0 106.92 0 162 0 C162 53.13 162 106.26 162 161 C108.54 161 55.08 161 0 161 C0 107.87 0 54.74 0 0 Z " fill="#9DC6D4" transform="translate(0,0)"/>
<path d="M0 0 C2.19308691 2.19308691 1.2462531 7.53101026 1.25976562 10.57470703 C1.19879927 15.87291785 0.30117088 20.39626003 -1.33203125 25.44921875 C-2.43718062 29.66946751 -2.18862671 33.66158571 -2 38 C1.63 38 5.26 38 9 38 C9 38.66 9 39.32 9 40 C5.04 40 1.08 40 -3 40 C-3.33 42.97 -3.66 45.94 -4 49 C0.455 50.98 0.455 50.98 5 53 C5 53.66 5 54.32 5 55 C3.55903414 54.57405412 2.12231288 54.13373367 0.6875 53.6875 C-0.11300781 53.44386719 -0.91351563 53.20023438 -1.73828125 52.94921875 C-4.09964573 51.95817977 -5.33879993 50.91925057 -7 49 C-6.505 48.01 -6.505 48.01 -6 47 C-8.31 46.67 -10.62 46.34 -13 46 C-12.67 46.66 -12.34 47.32 -12 48 C-11.01 48.33 -10.02 48.66 -9 49 C-9.5590888 52.24271506 -10.4132178 53.93057424 -13 56 C-13.66 56 -14.32 56 -15 56 C-8.99954841 69.38562279 -0.90734509 76.23948509 10.609375 84.98046875 C16.90371648 90.29774741 20.80760267 97.89781302 22 106 C22.31547485 111.99934657 22.17652198 117.99825261 22 124 C28.31836492 121.44764537 31.44030986 119.50930282 34.25 113.1875 C36.24489505 104.70919603 34.2155978 98.85791135 31 91 C29.65890079 87.66968672 28.32303598 84.33753522 27 81 C26.54560547 79.89205078 26.54560547 79.89205078 26.08203125 78.76171875 C23.54678138 72.06056535 22.5246179 65.26221496 24.9140625 58.359375 C27.99295247 51.88377416 32.00218639 43.73020758 39 41 C43.62198831 40.55981064 45.92773451 40.45292577 50.0625 42.5625 C52 45 52 45 52 48.625 C51 52 51 52 48 54 C45.9140625 54.23828125 45.9140625 54.23828125 43.625 54.3125 C39.87402416 54.64239038 39.09177212 54.92543515 36 57.4375 C33.1115912 61.13827377 32.53316129 63.63441115 32.59375 68.390625 C33.38682512 73.48460752 36.38499002 77.63786838 39 82 C44.91677884 91.9321577 47.22094418 99.40103032 46 111 C45.92523438 111.78246094 45.85046875 112.56492187 45.7734375 113.37109375 C44.57728078 120.28376687 40.01209173 126.51041398 34.703125 130.8984375 C29.38020504 134.37359225 24.44360849 135.83693813 18.15234375 136.578125 C17.44207031 136.71734375 16.73179688 136.8565625 16 137 C15.67 137.66 15.34 138.32 15 139 C25.23 139 35.46 139 46 139 C46 139.66 46 140.32 46 141 C43.56089768 142.21955116 42.00622874 142.12314886 39.27975464 142.12025452 C37.78632538 142.12231651 37.78632538 142.12231651 36.26272583 142.12442017 C35.16652924 142.12082489 34.07033264 142.11722961 32.94091797 142.11352539 C31.78970459 142.11367142 30.63849121 142.11381744 29.45239258 142.1139679 C25.63230531 142.11326904 21.81226629 142.1054779 17.9921875 142.09765625 C15.34945706 142.09579197 12.70672627 142.09436812 10.06399536 142.09336853 C3.80959377 142.09025748 -2.44479039 142.08204714 -8.6991843 142.07201904 C-15.81880259 142.06085088 -22.93842171 142.05534568 -30.05804658 142.05032361 C-44.70537339 142.03986435 -59.35268645 142.02226928 -74 142 C-74 141.01 -74 140.02 -74 139 C-67.73 139 -61.46 139 -55 139 C-54.67 137.35 -54.34 135.7 -54 134 C-52.6875 131.6875 -52.6875 131.6875 -51 130 C-49.68 130 -48.36 130 -47 130 C-47.0714624 129.37053467 -47.1429248 128.74106934 -47.21655273 128.0925293 C-48.01997959 120.31577836 -48.11725352 112.62540563 -48.0625 104.8125 C-48.05798828 103.57435547 -48.05347656 102.33621094 -48.04882812 101.06054688 C-48.03716699 98.04031215 -48.02080236 95.02018323 -48 92 C-47.36916504 92.78858398 -46.73833008 93.57716797 -46.08837891 94.38964844 C-42.13616329 99.89769014 -42.13616329 99.89769014 -37 104 C-37 115.22 -37 126.44 -37 138 C-35.68 138 -34.36 138 -33 138 C-33 115.89 -33 93.78 -33 71 C-35.97 70.34 -38.94 69.68 -42 69 C-44.8455957 67.42731259 -47.00138425 65.57054668 -49 63 C-49.4375 60.125 -49.4375 60.125 -49 58 C-45.60391496 59.45546502 -43.59139701 61.40860299 -41 64 C-36.70315381 66.54027385 -32.8794603 66.64489682 -28 66 C-23.22644724 64.49529315 -19.81922577 63.22883866 -17 59 C-18.11375 59.33 -19.2275 59.66 -20.375 60 C-27.40649036 61.74540541 -34.250389 61.84194147 -41 59 C-41 56.36 -41 53.72 -41 51 C-39.35567294 50.63890458 -37.7094792 50.28629924 -36.0625 49.9375 C-34.68771484 49.64166016 -34.68771484 49.64166016 -33.28515625 49.33984375 C-32.53105469 49.22769531 -31.77695312 49.11554687 -31 49 C-30.67 49.33 -30.34 49.66 -30 50 C-28.33382885 50.04063832 -26.66611905 50.042721 -25 50 C-24.34 48.68 -23.68 47.36 -23 46 C-23.763125 46.20625 -24.52625 46.4125 -25.3125 46.625 C-28 47 -28 47 -31 45 C-30.67 42.69 -30.34 40.38 -30 38 C-30.99 37.67 -31.98 37.34 -33 37 C-33 26.77 -33 16.54 -33 6 C-26.07 6.495 -26.07 6.495 -19 7 C-17.35 5.68 -15.7 4.36 -14 3 C-9.13022207 0.47492996 -5.48554991 -0.43884399 0 0 Z " fill="#F5F7F7" transform="translate(92,10)"/>
<path d="M0 0 C-4 1 -4 1 -13 -1 C-13 9.23 -13 19.46 -13 30 C-11.68 30.33 -10.36 30.66 -9 31 C-9.33 33.31 -9.66 35.62 -10 38 C-7.69 38.33 -5.38 38.66 -3 39 C-3.875 42.875 -3.875 42.875 -5 44 C-7.44747125 44.13229574 -9.51729729 44.14481081 -11.875 43.4375 C-15.0290197 42.788143 -17.85785502 43.45616721 -21 44 C-20.505 47.96 -20.505 47.96 -20 52 C-12.50042814 53.99988583 -4.57515273 53.12224485 3 52 C1.60915583 55.46618756 0.33959746 56.73795668 -3.0625 58.25 C-7.77679825 60.14629625 -11.97033493 61.04338797 -17 60 C-21.71286456 57.88589586 -25.56956519 54.85923917 -29 51 C-27.75229718 55.99081129 -26.39838674 58.2861018 -22 61 C-17.545 62.485 -17.545 62.485 -13 64 C-13 86.11 -13 108.22 -13 131 C-14.32 131 -15.64 131 -17 131 C-17 119.78 -17 108.56 -17 97 C-18.32 96.34 -19.64 95.68 -21 95 C-22.703125 93.0546875 -22.703125 93.0546875 -24.25 90.875 C-25.1575 89.59625 -26.065 88.3175 -27 87 C-27.33 91.62 -27.66 96.24 -28 101 C-28.33 101 -28.66 101 -29 101 C-29.00951187 100.38691986 -29.01902374 99.77383972 -29.02882385 99.1421814 C-29.13474133 92.7491754 -29.28855443 86.35858493 -29.4699707 79.96728516 C-29.53137289 77.58345458 -29.58064136 75.19927882 -29.61743164 72.81494141 C-29.67251178 69.38280508 -29.7714697 65.95428541 -29.87890625 62.5234375 C-29.88652481 61.46071625 -29.89414337 60.397995 -29.9019928 59.30307007 C-30.078569 53.76454959 -30.078569 53.76454959 -32.51974487 48.93756104 C-34.30058971 47.31640123 -35.82834381 46.041382 -38 45 C-42.13314637 45.5672946 -44.8465451 47.33169201 -48 50 C-48.66 49.67 -49.32 49.34 -50 49 C-44.78081324 45.29844911 -39.71022822 42.218632 -33.75 39.859375 C-31.81079675 39.12635951 -31.81079675 39.12635951 -31 37 C-37.30719307 37.92065781 -40.91921368 38.9977458 -45 44 C-45.66 43.67 -46.32 43.34 -47 43 C-46.34 42.34 -45.68 41.68 -45 41 C-45.7425 41.04125 -46.485 41.0825 -47.25 41.125 C-50.08758952 40.99601866 -51.58773938 40.42948778 -54 39 C-54.33 39.66 -54.66 40.32 -55 41 C-55 40.01 -55 39.02 -55 38 C-49.06 37.505 -49.06 37.505 -43 37 C-43 36.34 -43 35.68 -43 35 C-45.64 35 -48.28 35 -51 35 C-51 34.67 -51 34.34 -51 34 C-50.00097656 33.95101562 -49.00195312 33.90203125 -47.97265625 33.8515625 C-46.68230469 33.77679688 -45.39195313 33.70203125 -44.0625 33.625 C-42.77472656 33.55539063 -41.48695312 33.48578125 -40.16015625 33.4140625 C-38.59587891 33.20910156 -38.59587891 33.20910156 -37 33 C-36.67 32.34 -36.34 31.68 -36 31 C-35.34 31 -34.68 31 -34 31 C-33.67 31.66 -33.34 32.32 -33 33 C-30.64400765 33.46751788 -30.64400765 33.46751788 -27.9375 33.625 C-27.01839844 33.69976562 -26.09929688 33.77453125 -25.15234375 33.8515625 C-24.44207031 33.90054688 -23.73179688 33.94953125 -23 34 C-23 35.65 -23 37.3 -23 39 C-20.69 38.67 -18.38 38.34 -16 38 C-16.495 34.535 -16.495 34.535 -17 31 C-16.34 31 -15.68 31 -15 31 C-17.70156211 24.36317506 -17.70156211 24.36317506 -23 20 C-28.23307451 18.85859003 -31.08738155 18.54369078 -36 21 C-36 23.97 -36 26.94 -36 30 C-38.97 30 -41.94 30 -45 30 C-45.06058594 29.26394531 -45.12117188 28.52789062 -45.18359375 27.76953125 C-45.26738281 26.79371094 -45.35117187 25.81789063 -45.4375 24.8125 C-45.51871094 23.84957031 -45.59992187 22.88664062 -45.68359375 21.89453125 C-45.97666151 19.21350398 -46.42703754 16.6337014 -47 14 C-46.34 14.33 -45.68 14.66 -45 15 C-45 15.99 -45 16.98 -45 18 C-44.34 18 -43.68 18 -43 18 C-43 11.73 -43 5.46 -43 -1 C-37 0 -37 0 -35 1.625 C-32.96528312 3.32524235 -32.96528312 3.32524235 -29.8125 2.8125 C-28.884375 2.544375 -27.95625 2.27625 -27 2 C-26.67 1.34 -26.34 0.68 -26 0 C-17.78383237 -3.36115949 -8.22194044 -3.11568269 0 0 Z " fill="#8DAAB4" transform="translate(72,17)"/>
<path d="M0 0 C2.2043353 1.06134663 4.25677115 2.16655426 6.3125 3.5 C9.56627125 5.45042521 9.56627125 5.45042521 16 7 C16 29.11 16 51.22 16 74 C14.68 74 13.36 74 12 74 C12 62.78 12 51.56 12 40 C10.68 39.34 9.36 38.68 8 38 C6.296875 36.0546875 6.296875 36.0546875 4.75 33.875 C3.8425 32.59625 2.935 31.3175 2 30 C1.67 34.62 1.34 39.24 1 44 C0.67 44 0.34 44 0 44 C-0.65047031 33.29047099 -1.10366937 22.60608395 -1.125 11.875 C-1.12951172 10.92157715 -1.13402344 9.9681543 -1.13867188 8.98583984 C-1.13673828 8.10105957 -1.13480469 7.2162793 -1.1328125 6.3046875 C-1.13112061 5.1288208 -1.13112061 5.1288208 -1.12939453 3.92919922 C-1 2 -1 2 0 0 Z " fill="#8DA8B2" transform="translate(43,74)"/>
<path d="M0 0 C0.33 0 0.66 0 1 0 C1 10.23 1 20.46 1 31 C2.32 31.33 3.64 31.66 5 32 C4.67 34.31 4.34 36.62 4 39 C6.31 39.33 8.62 39.66 11 40 C10.125 43.875 10.125 43.875 9 45 C6.55252875 45.13229574 4.48270271 45.14481081 2.125 44.4375 C-1.0290197 43.788143 -3.85785502 44.45616721 -7 45 C-6.505 48.96 -6.505 48.96 -6 53 C1.49957186 54.99988583 9.42484727 54.12224485 17 53 C15.60915583 56.46618756 14.33959746 57.73795668 10.9375 59.25 C6.22320175 61.14629625 2.02966507 62.04338797 -3 61 C-7.71286456 58.88589586 -11.56956519 55.85923917 -15 52 C-14.79375 52.94875 -14.5875 53.8975 -14.375 54.875 C-14.25125 55.90625 -14.1275 56.9375 -14 58 C-14.66 58.66 -15.32 59.32 -16 60 C-16.020625 58.80375 -16.04125 57.6075 -16.0625 56.375 C-16.51786589 52.73207284 -17.52724448 50.90634446 -20.1875 48.375 C-23.0194024 46.23366397 -23.5284705 45.93528026 -27.1875 46.4375 C-29.65407464 47.80781924 -31.84801382 49.17908862 -34 51 C-34.66 50.67 -35.32 50.34 -36 50 C-30.78081324 46.29844911 -25.71022822 43.218632 -19.75 40.859375 C-17.81079675 40.12635951 -17.81079675 40.12635951 -17 38 C-23.30719307 38.92065781 -26.91921368 39.9977458 -31 45 C-31.66 44.67 -32.32 44.34 -33 44 C-32.34 43.34 -31.68 42.68 -31 42 C-31.7425 42.04125 -32.485 42.0825 -33.25 42.125 C-36.08758952 41.99601866 -37.58773938 41.42948778 -40 40 C-40.33 40.66 -40.66 41.32 -41 42 C-41 41.01 -41 40.02 -41 39 C-35.06 38.505 -35.06 38.505 -29 38 C-29 37.34 -29 36.68 -29 36 C-31.64 36 -34.28 36 -37 36 C-37 35.67 -37 35.34 -37 35 C-36.00097656 34.95101562 -35.00195312 34.90203125 -33.97265625 34.8515625 C-32.68230469 34.77679688 -31.39195313 34.70203125 -30.0625 34.625 C-28.77472656 34.55539063 -27.48695312 34.48578125 -26.16015625 34.4140625 C-24.59587891 34.20910156 -24.59587891 34.20910156 -23 34 C-22.67 33.34 -22.34 32.68 -22 32 C-21.34 32 -20.68 32 -20 32 C-19.67 32.66 -19.34 33.32 -19 34 C-16.64400765 34.46751788 -16.64400765 34.46751788 -13.9375 34.625 C-13.01839844 34.69976562 -12.09929688 34.77453125 -11.15234375 34.8515625 C-10.44207031 34.90054688 -9.73179688 34.94953125 -9 35 C-9 36.65 -9 38.3 -9 40 C-6.69 39.67 -4.38 39.34 -2 39 C-2.495 35.535 -2.495 35.535 -3 32 C-2.34 32 -1.68 32 -1 32 C-1.495 30.02 -1.495 30.02 -2 28 C-1.34 28 -0.68 28 0 28 C0 18.76 0 9.52 0 0 Z " fill="#98AFB6" transform="translate(58,16)"/>
<path d="M0 0 C3.25 1.8125 3.25 1.8125 5 4 C5 4.99 5 5.98 5 7 C3.91332031 6.87818359 3.91332031 6.87818359 2.8046875 6.75390625 C-2.90735843 6.25338844 -2.90735843 6.25338844 -7.99609375 8.41796875 C-9.53472571 10.21751585 -10.807402 11.95554628 -12 14 C-12.55107422 14.87785156 -12.55107422 14.87785156 -13.11328125 15.7734375 C-15.26032449 21.16469146 -14.94456852 27.36325672 -14 33 C-12.08764755 35.40087917 -10.43856054 36.57723054 -7.75 38.01953125 C-7.1725 38.34308594 -6.595 38.66664063 -6 39 C-6 39.66 -6 40.32 -6 41 C-7.18078125 40.94199219 -8.3615625 40.88398438 -9.578125 40.82421875 C-11.13537711 40.77731357 -12.69267201 40.73181421 -14.25 40.6875 C-15.41595703 40.6246582 -15.41595703 40.6246582 -16.60546875 40.56054688 C-18.84238294 40.51274956 -20.81131845 40.52675642 -23 41 C-25.31308734 43.42169313 -25.31308734 43.42169313 -27 46 C-28.32 46 -29.64 46 -31 46 C-31.4375 43.875 -31.4375 43.875 -31 41 C-28.40141927 38.14906366 -25.4543967 35.72719835 -22 34 C-22.495 32.9275 -22.99 31.855 -23.5 30.75 C-26.03113013 23.91958184 -26.38925054 16.20381417 -23.3125 9.5 C-17.98178838 0.42083746 -9.81687263 -1.11159676 0 0 Z " fill="#98B3BC" transform="translate(95,102)"/>
<path d="M0 0 C3.68984217 2.10289734 6.63440208 4.90320624 8 9 C8 9.99 8 10.98 8 12 C7.34 12 6.68 12 6 12 C6.66 14.31 7.32 16.62 8 19 C7 20 7 20 3.4375 20.0625 C2.303125 20.041875 1.16875 20.02125 0 20 C0 18.35 0 16.7 0 15 C-3.3 15 -6.6 15 -10 15 C-10.33 14.01 -10.66 13.02 -11 12 C-11.66 12 -12.32 12 -13 12 C-13 12.66 -13 13.32 -13 14 C-19.27 14 -25.54 14 -32 14 C-32 13.34 -32 12.68 -32 12 C-25.73 11.67 -19.46 11.34 -13 11 C-13.33 8.03 -13.66 5.06 -14 2 C-9.44899663 -1.67016401 -5.40944734 -1.57140636 0 0 Z " fill="#F7F9F9" transform="translate(49,36)"/>
<path d="M0 0 C1.56141274 2.62601234 2.30019261 4.24539699 2.375 7.3125 C0.18097015 11.90951493 0.18097015 11.90951493 -2.625 13.3125 C-4.49556791 13.5400015 -6.37185958 13.72212811 -8.25 13.875 C-9.25289062 13.95878906 -10.25578125 14.04257813 -11.2890625 14.12890625 C-12.05992187 14.18949219 -12.83078125 14.25007813 -13.625 14.3125 C-13.295 13.6525 -12.965 12.9925 -12.625 12.3125 C-10.36553416 11.95692669 -8.1350223 11.86919494 -5.8515625 11.75390625 C-3.17314587 11.2229219 -2.26630483 10.46121137 -0.625 8.3125 C-0.04166667 5.8125 -0.04166667 5.8125 -0.625 3.3125 C-3.06890181 0.35945198 -4.71888274 0.30355879 -8.5625 -0.0625 C-12.34452007 -0.10761356 -14.60798116 1.0509089 -17.625 3.3125 C-19.19597897 5.47398879 -20.55052565 7.51504642 -21.875 9.8125 C-22.225625 10.39386719 -22.57625 10.97523437 -22.9375 11.57421875 C-28.93415419 21.6532106 -26.59959025 32.22306009 -24.625 43.3125 C-30.57365424 37.70126943 -32.84975025 32.05819385 -33.1875 23.875 C-32.87664868 15.2814651 -29.95871489 9.16242406 -23.6875 3.3125 C-17.33174244 -1.7083122 -7.33749836 -4.71696323 0 0 Z " fill="#91ABB3" transform="translate(143.625,51.6875)"/>
<path d="M0 0 C3.25 1.8125 3.25 1.8125 5 4 C5 4.99 5 5.98 5 7 C4.27554688 6.91878906 3.55109375 6.83757812 2.8046875 6.75390625 C-2.80535623 6.29390574 -2.80535623 6.29390574 -7.92578125 8.20703125 C-12.02241495 12.72708962 -14.05345377 18.30073723 -16 24 C-16.4125 25.19625 -16.825 26.3925 -17.25 27.625 C-17.4975 28.40875 -17.745 29.1925 -18 30 C-18.66 30 -19.32 30 -20 30 C-21.69555905 24.11458842 -22.51301095 17.1935701 -19.8359375 11.54296875 C-17.10276709 7.76558709 -14.27542749 5.01196588 -10 3 C-13.82097239 3.53069061 -16.06171403 4.49701566 -19 7 C-19.66 6.67 -20.32 6.34 -21 6 C-14.04832814 0.20694011 -9.07483316 -1.0275732 0 0 Z " fill="#90A9B1" transform="translate(95,102)"/>
<path d="M0 0 C6.21595095 0.36264511 11.89483017 1.14357675 17 5 C18.22265625 7.13671875 18.22265625 7.13671875 19 9 C16.875 10.25 16.875 10.25 14 11 C10.9375 9.1875 10.9375 9.1875 8 7 C5.8917467 6.35120267 5.8917467 6.35120267 4 6 C4.08378906 7.20398438 4.16757812 8.40796875 4.25390625 9.6484375 C4.3570641 11.22393916 4.45991266 12.79946109 4.5625 14.375 C4.61857422 15.1690625 4.67464844 15.963125 4.73242188 16.78125 C5.11328125 22.7734375 5.11328125 22.7734375 4 25 C3.34 25 2.68 25 2 25 C0.0830427 19.37742839 -0.24889924 14.47630615 -0.125 8.5625 C-0.11597656 7.73556641 -0.10695313 6.90863281 -0.09765625 6.05664062 C-0.07431512 4.03763292 -0.03845288 2.01877644 0 0 Z " fill="#F5F6F7" transform="translate(25,10)"/>
<path d="M0 0 C2.14553377 3.21830065 2.29583868 4.26786507 2.3125 8 C2.32925781 8.86625 2.34601562 9.7325 2.36328125 10.625 C2 13 2 13 0.703125 14.8203125 C-1 16 -1 16 -4.5625 15.875 C-8 15 -8 15 -10 12 C-10.30078125 9.84375 -10.30078125 9.84375 -10.3125 7.5 C-10.32925781 6.7265625 -10.34601562 5.953125 -10.36328125 5.15625 C-9.38763285 -0.63469536 -5.07013576 -0.55310572 0 0 Z " fill="#DFE5E6" transform="translate(13,106)"/>
<path d="M0 0 C0.33 0 0.66 0 1 0 C1 10.23 1 20.46 1 31 C2.32 31.33 3.64 31.66 5 32 C4.67 34.31 4.34 36.62 4 39 C6.31 39.33 8.62 39.66 11 40 C10.125 43.875 10.125 43.875 9 45 C6.5625 45.25 6.5625 45.25 4 45 C3.34 44.01 2.68 43.02 2 42 C1.2575 42.350625 0.515 42.70125 -0.25 43.0625 C-3.1322726 44.04509293 -4.21176345 44.0326802 -7 43 C-6.67 42.01 -6.34 41.02 -6 40 C-3.9375 39.3125 -3.9375 39.3125 -2 39 C-2.33 36.69 -2.66 34.38 -3 32 C-2.34 32 -1.68 32 -1 32 C-1.33 30.68 -1.66 29.36 -2 28 C-1.34 28 -0.68 28 0 28 C0 18.76 0 9.52 0 0 Z " fill="#A9BDC4" transform="translate(58,16)"/>
<path d="M0 0 C-0.875 4.75 -0.875 4.75 -2 7 C-0.68 7 0.64 7 2 7 C2.66 5.02 3.32 3.04 4 1 C5.32 1.33 6.64 1.66 8 2 C7.66142425 5.04718178 7.16892978 6.7747603 5.3125 9.25 C2.43973262 11.42398613 0.59334155 11.92513872 -3 12 C-5.375 10.875 -5.375 10.875 -7 9 C-7.55499513 5.90788426 -7.24326804 4.45004588 -5.75 1.6875 C-4 0 -4 0 0 0 Z " fill="#97B0B8" transform="translate(73,38)"/>
<path d="M0 0 C0.99 0.33 1.98 0.66 3 1 C3 2.98 3 4.96 3 7 C4.32 7 5.64 7 7 7 C7 5.02 7 3.04 7 1 C10.875 2.875 10.875 2.875 12 4 C12.1875 6.4375 12.1875 6.4375 12 9 C9.63031893 11.36968107 8.87986199 11.37023806 5.625 11.5 C3.203125 11.453125 3.203125 11.453125 1 11 C-1.625 8.25 -1.625 8.25 -3 5 C-2.875 2.6875 -2.875 2.6875 -2 1 C-1.34 0.67 -0.68 0.34 0 0 Z " fill="#98ADB5" transform="translate(40,38)"/>
<path d="M0 0 C0.3690205 10.55808656 0.3690205 10.55808656 -2 15 C-3.13199353 14.0919838 -4.25532363 13.17316174 -5.375 12.25 C-6.00148438 11.73953125 -6.62796875 11.2290625 -7.2734375 10.703125 C-9.08312318 8.91800519 -10.00117455 7.32050356 -11 5 C-9.73461631 4.15841464 -8.46246221 3.32700252 -7.1875 2.5 C-6.47980469 2.0359375 -5.77210937 1.571875 -5.04296875 1.09375 C-3 0 -3 0 0 0 Z " fill="#93ADB5" transform="translate(88,15)"/>
<path d="M0 0 C3.25 1.8125 3.25 1.8125 5 4 C5 4.99 5 5.98 5 7 C2.87363187 6.71848084 0.74891472 6.42446737 -1.375 6.125 C-2.55835937 5.96257812 -3.74171875 5.80015625 -4.9609375 5.6328125 C-8 5 -8 5 -10 3 C-13.84177074 3.30329769 -16.09427672 4.52475424 -19 7 C-19.66 6.67 -20.32 6.34 -21 6 C-14.04832814 0.20694011 -9.07483316 -1.0275732 0 0 Z " fill="#96B0B8" transform="translate(95,102)"/>
<path d="M0 0 C-0.54269531 0.37511719 -1.08539063 0.75023438 -1.64453125 1.13671875 C-2.71767578 1.90435547 -2.71767578 1.90435547 -3.8125 2.6875 C-4.52019531 3.18636719 -5.22789063 3.68523437 -5.95703125 4.19921875 C-9.53993844 7.35738359 -11.08944199 10.26595751 -11.51171875 14.98828125 C-11.58408671 16.42906162 -11.64240062 17.87060845 -11.6875 19.3125 C-11.72166016 20.05306641 -11.75582031 20.79363281 -11.79101562 21.55664062 C-11.87293554 23.37058164 -11.93815822 25.18526353 -12 27 C-14.9083966 24.0916034 -14.94389743 21.93504287 -15.1875 17.875 C-14.70179665 7.83713086 -14.70179665 7.83713086 -13 4 C-9.0937407 0.50653522 -5.17029334 -1.85327866 0 0 Z " fill="#9CC7D5" transform="translate(86,105)"/>
<path d="M0 0 C2.5 0.125 2.5 0.125 3.5 1.125 C3.66796875 3.12109375 3.66796875 3.12109375 3.6875 5.5625 C3.70167969 6.36558594 3.71585938 7.16867188 3.73046875 7.99609375 C3.5 10.125 3.5 10.125 1.5 12.125 C-2.03571429 11.58928571 -2.03571429 11.58928571 -3.5 10.125 C-3.5979057 8.62761876 -3.62974864 7.12557108 -3.625 5.625 C-3.62757813 4.8103125 -3.63015625 3.995625 -3.6328125 3.15625 C-3.43435342 0.12099356 -3.05615366 0.15280768 0 0 Z " fill="#9AC0CD" transform="translate(9.5,107.875)"/>
<path d="M0 0 C0.66 0.33 1.32 0.66 2 1 C-0.64 2.65 -3.28 4.3 -6 6 C-0.39 6.33 5.22 6.66 11 7 C11 7.33 11 7.66 11 8 C0.99112106 8.62277469 -8.96588331 9.17707265 -19 9 C-18.67 8.01 -18.34 7.02 -18 6 C-17.28714844 5.90203125 -16.57429688 5.8040625 -15.83984375 5.703125 C-9.6212083 4.73224786 -5.32772636 3.28732052 0 0 Z " fill="#9BB9C3" transform="translate(126,140)"/>
<path d="M0 0 C1.875 0.625 1.875 0.625 4 2 C5.25 5.125 5.25 5.125 6 8 C5 9 5 9 1.4375 9.0625 C0.303125 9.041875 -0.83125 9.02125 -2 9 C-2 7.35 -2 5.7 -2 4 C-5.3 4 -8.6 4 -12 4 C-12.33 3.34 -12.66 2.68 -13 2 C-12.14535156 1.93941406 -11.29070313 1.87882812 -10.41015625 1.81640625 C-8.75306641 1.69072266 -8.75306641 1.69072266 -7.0625 1.5625 C-5.96035156 1.48128906 -4.85820313 1.40007813 -3.72265625 1.31640625 C-1.08890097 1.29581916 -1.08890097 1.29581916 0 0 Z " fill="#D7DDDF" transform="translate(51,47)"/>
<path d="M0 0 C1.65 0 3.3 0 5 0 C5 7.26 5 14.52 5 22 C4.34 22 3.68 22 3 22 C2.87882812 20.71222656 2.75765625 19.42445312 2.6328125 18.09765625 C2.46403135 16.41922152 2.29473387 14.74083865 2.125 13.0625 C2.04636719 12.21236328 1.96773437 11.36222656 1.88671875 10.48632812 C1.80292969 9.67744141 1.71914063 8.86855469 1.6328125 8.03515625 C1.52283936 6.91185913 1.52283936 6.91185913 1.41064453 5.76586914 C1.20737549 4.89176392 1.20737549 4.89176392 1 4 C0.34 3.67 -0.32 3.34 -1 3 C-0.67 2.01 -0.34 1.02 0 0 Z " fill="#EAEEEE" transform="translate(20,76)"/>
<path d="M0 0 C-0.33 1.32 -0.66 2.64 -1 4 C-7.72 5.56 -7.72 5.56 -11.3125 3.98828125 C-13.30691667 2.74533229 -15.19604549 1.50649392 -17 0 C-17 -0.33 -17 -0.66 -17 -1 C-10.90367577 -2.32528788 -6.02232181 -1.46619907 0 0 Z " fill="#95B8C4" transform="translate(64,72)"/>
<path d="M0 0 C-1 3 -1 3 -2.53466797 4.05908203 C-3.50364014 4.52870361 -3.50364014 4.52870361 -4.4921875 5.0078125 C-5.54986328 5.52794922 -5.54986328 5.52794922 -6.62890625 6.05859375 C-7.37011719 6.41050781 -8.11132812 6.76242188 -8.875 7.125 C-9.60847656 7.48464844 -10.34195312 7.84429687 -11.09765625 8.21484375 C-14.05010958 9.65073635 -16.8799782 10.95999273 -20 12 C-18.93686226 8.69246035 -17.44717989 7.52444302 -14.5 5.9375 C-13.8915625 5.63714844 -13.283125 5.33679687 -12.65625 5.02734375 C-10.66952185 3.95352189 -10.66952185 3.95352189 -9 1 C-5.8035914 -0.06546953 -3.34252724 -0.07427838 0 0 Z " fill="#F2F5F5" transform="translate(41,54)"/>
<path d="M0 0 C4.29 0.66 8.58 1.32 13 2 C13 2.33 13 2.66 13 3 C10.36 3 7.72 3 5 3 C8.465 4.98 8.465 4.98 12 7 C11.67 8.32 11.34 9.64 11 11 C5.98491285 9.45941767 1.3852919 7.97068161 -3 5 C-2.34 4.67 -1.68 4.34 -1 4 C1.6015625 4.99609375 1.6015625 4.99609375 4.625 6.4375 C5.62789062 6.91058594 6.63078125 7.38367187 7.6640625 7.87109375 C8.43492188 8.24363281 9.20578125 8.61617187 10 9 C10 8.34 10 7.68 10 7 C8.9171875 6.8453125 8.9171875 6.8453125 7.8125 6.6875 C4.69946508 5.92653591 2.56994002 4.9090983 0 3 C0 2.01 0 1.02 0 0 Z " fill="#9AB4BC" transform="translate(87,56)"/>
<path d="M0 0 C2.64 0 5.28 0 8 0 C8 5.28 8 10.56 8 16 C7.01 16 6.02 16 5 16 C5 11.38 5 6.76 5 2 C3.35 2 1.7 2 0 2 C0 1.34 0 0.68 0 0 Z " fill="#E4E8EA" transform="translate(20,106)"/>
<path d="M0 0 C0.99 0 1.98 0 3 0 C3 7.26 3 14.52 3 22 C2.34 22 1.68 22 1 22 C0.93941406 20.81921875 0.87882813 19.6384375 0.81640625 18.421875 C0.73197418 16.8645723 0.64732751 15.30728121 0.5625 13.75 C0.52318359 12.97269531 0.48386719 12.19539063 0.44335938 11.39453125 C0.40146484 10.64042969 0.35957031 9.88632813 0.31640625 9.109375 C0.27974854 8.41811523 0.24309082 7.72685547 0.20532227 7.01464844 C0.04820114 4.94979468 0.04820114 4.94979468 -0.58227539 2.80566406 C-0.72012451 2.20979492 -0.85797363 1.61392578 -1 1 C-0.67 0.67 -0.34 0.34 0 0 Z " fill="#F5F7F7" transform="translate(7,76)"/>
<path d="M0 0 C2.95363485 1.9980471 4.36960736 4.36556288 6.125 7.4375 C6.125 8.4275 6.125 9.4175 6.125 10.4375 C4.125 12.125 4.125 12.125 2.125 13.4375 C2.02703125 12.83421875 1.9290625 12.2309375 1.828125 11.609375 C0.91553096 6.73171718 0.24904277 3.59926612 -3.875 0.4375 C-1.875 -0.5625 -1.875 -0.5625 0 0 Z " fill="#EFF2F3" transform="translate(50.875,37.5625)"/>
<path d="M0 0 C4.10199025 1.76968657 7.4384043 4.46270367 10.9375 7.1875 C11.54529297 7.64447266 12.15308594 8.10144531 12.77929688 8.57226562 C17.0954019 11.9292362 19.99912241 15.4275053 23 20 C22.67 20.66 22.34 21.32 22 22 C21.401875 21.030625 20.80375 20.06125 20.1875 19.0625 C16.38993592 13.71335973 11.12652193 10.00228466 6 6 C3.96768332 4.36328695 1.97399898 2.70724237 0 1 C0 0.67 0 0.34 0 0 Z " fill="#99B3BC" transform="translate(87,82)"/>
<path d="M0 0 C1.98 0 3.96 0 6 0 C5.67 2.31 5.34 4.62 5 7 C6.98 7.66 8.96 8.32 11 9 C11 9.33 11 9.66 11 10 C7.66666667 10 4.33333333 10 1 10 C-0.67225729 10.30404678 -2.34080104 10.63128912 -4 11 C-4.33 10.34 -4.66 9.68 -5 9 C-3.02 8.34 -1.04 7.68 1 7 C1.21081851 3.10540926 1.21081851 3.10540926 0 0 Z " fill="#9FCBDA" transform="translate(56,49)"/>
<path d="M0 0 C2.15502531 3.23253796 2.46856135 4.25150923 2 8 C0.9375 9.875 0.9375 9.875 -1 11 C-4.625 10.8125 -4.625 10.8125 -8 10 C-9.53445094 6.93109813 -8.54984289 4.29905734 -8 1 C-7.67 1 -7.34 1 -7 1 C-6.34 3.31 -5.68 5.62 -5 8 C-3.68 7.67 -2.36 7.34 -1 7 C-0.67 4.69 -0.34 2.38 0 0 Z " fill="#D6DCDE" transform="translate(13,111)"/>
<path d="M0 0 C0 0.99 0 1.98 0 3 C-6.27 3 -12.54 3 -19 3 C-19 2.34 -19 1.68 -19 1 C-16.39590255 0.83218705 -13.7917318 0.66570349 -11.1875 0.5 C-10.08051758 0.42845703 -10.08051758 0.42845703 -8.95117188 0.35546875 C-5.96175412 0.16609387 -2.99625426 0 0 0 Z " fill="#FCFDFD" transform="translate(36,47)"/>
<path d="M0 0 C2 1 2 1 3 3 C2.01 3.495 2.01 3.495 1 4 C1.50298788 8.40114397 3.08772731 10.71195019 6 14 C1.25 13.125 1.25 13.125 -1 12 C-1.484375 9.78515625 -1.484375 9.78515625 -1.75 7.0625 C-1.84796875 6.16660156 -1.9459375 5.27070312 -2.046875 4.34765625 C-2 2 -2 2 0 0 Z " fill="#EDF0F1" transform="translate(37,36)"/>
<path d="M0 0 C0.66 1.32 1.32 2.64 2 4 C0.68 4.99 -0.64 5.98 -2 7 C-2.66 6.67 -3.32 6.34 -4 6 C-3.34 5.34 -2.68 4.68 -2 4 C-2.7425 4.04125 -3.485 4.0825 -4.25 4.125 C-7.08758952 3.99601866 -8.58773938 3.42948778 -11 2 C-11.33 2.66 -11.66 3.32 -12 4 C-12 3.01 -12 2.02 -12 1 C-7.95858806 0.36605303 -4.0934693 -0.12404452 0 0 Z " fill="#98B2BB" transform="translate(29,54)"/>
<path d="M0 0 C2.76223278 2.76223278 2.57856291 5.20706617 3 9 C-1.29 8.67 -5.58 8.34 -10 8 C-10.66 6.35 -11.32 4.7 -12 3 C-11.505 3.7425 -11.505 3.7425 -11 4.5 C-7.82427253 6.88179561 -4.89753934 6.19168226 -1 6 C-1 4.68 -1 3.36 -1 2 C-0.67 1.34 -0.34 0.68 0 0 Z " fill="#94AEB6" transform="translate(145,32)"/>
<path d="M0 0 C0.33 0 0.66 0 1 0 C1.79725902 7.36040917 2.12886183 14.59760355 2 22 C0.68 21.67 -0.64 21.34 -2 21 C-1.67 20.67 -1.34 20.34 -1 20 C-0.84344973 18.51361008 -0.74933057 17.02050873 -0.68359375 15.52734375 C-0.64169922 14.62822266 -0.59980469 13.72910156 -0.55664062 12.80273438 C-0.51732422 11.85720703 -0.47800781 10.91167969 -0.4375 9.9375 C-0.37272461 8.5134082 -0.37272461 8.5134082 -0.30664062 7.06054688 C-0.20020724 4.70718647 -0.09818992 2.35371646 0 0 Z " fill="#A0BCC5" transform="translate(43,118)"/>
<path d="M0 0 C1.2065625 0.0309375 1.2065625 0.0309375 2.4375 0.0625 C1.4475 0.7225 0.4575 1.3825 -0.5625 2.0625 C-0.5625 2.7225 -0.5625 3.3825 -0.5625 4.0625 C1.0875 4.0625 2.7375 4.0625 4.4375 4.0625 C4.1075 3.0725 3.7775 2.0825 3.4375 1.0625 C4.0975 1.0625 4.7575 1.0625 5.4375 1.0625 C5.1075 2.7125 4.7775 4.3625 4.4375 6.0625 C-2.3125 6.1875 -2.3125 6.1875 -4.5625 5.0625 C-3.43829114 0.08386076 -3.43829114 0.08386076 0 0 Z " fill="#98B1B9" transform="translate(118.5625,32.9375)"/>
<path d="M0 0 C-0.7115625 0.8353125 -0.7115625 0.8353125 -1.4375 1.6875 C-3.12395996 4.18346074 -3.58953107 6.0446237 -4 9 C-4.99 8.67 -5.98 8.34 -7 8 C-7 5.36 -7 2.72 -7 0 C-2.25 -1.125 -2.25 -1.125 0 0 Z " fill="#D4DBDE" transform="translate(58,61)"/>
<path d="M0 0 C2.125 0.9375 2.125 0.9375 4 2 C3.67 3.32 3.34 4.64 3 6 C0.03 5.505 0.03 5.505 -3 5 C-2.625 3.0625 -2.625 3.0625 -2 1 C-1.34 0.67 -0.68 0.34 0 0 Z " fill="#AEC2C8" transform="translate(22,128)"/>
<path d="M0 0 C2.125 0.375 2.125 0.375 4 1 C4.33 2.32 4.66 3.64 5 5 C3.35 5.33 1.7 5.66 0 6 C-0.66 4.68 -1.32 3.36 -2 2 C-1.34 1.34 -0.68 0.68 0 0 Z " fill="#ADC2C9" transform="translate(11,128)"/>
<path d="M0 0 C-0.33 0.99 -0.66 1.98 -1 3 C-4.0625 4.1875 -4.0625 4.1875 -7 5 C-7.33 4.34 -7.66 3.68 -8 3 C-8.66 2.67 -9.32 2.34 -10 2 C-6.5980513 -0.09350689 -3.94727588 -0.17942163 0 0 Z " fill="#E5E9EB" transform="translate(41,54)"/>
<path d="M0 0 C7.42857143 -0.14285714 7.42857143 -0.14285714 11 1 C11 1.99 11 2.98 11 4 C9.02 4 7.04 4 5 4 C4.67 3.34 4.34 2.68 4 2 C1.98330173 0.86649466 1.98330173 0.86649466 0 0 Z " fill="#8EB1BD" transform="translate(116,19)"/>
<path d="M0 0 C2.64 0 5.28 0 8 0 C8 0.66 8 1.32 8 2 C5.04335481 3.4783226 2.25770263 3.06032783 -1 3 C-0.67 2.01 -0.34 1.02 0 0 Z " fill="#F4F6F6" transform="translate(130,149)"/>
<path d="M0 0 C2.31 0.33 4.62 0.66 7 1 C6.34 2.32 5.68 3.64 5 5 C4.67 4.34 4.34 3.68 4 3 C1.97536745 2.34786708 1.97536745 2.34786708 0 2 C0 1.34 0 0.68 0 0 Z " fill="#BEC9CC" transform="translate(79,56)"/>
<path d="M0 0 C2.64 0 5.28 0 8 0 C6.8125 1.5 6.8125 1.5 5 3 C2.3125 3.1875 2.3125 3.1875 0 3 C0 2.01 0 1.02 0 0 Z " fill="#C5D5DA" transform="translate(18,56)"/>
</svg>
